<?xml version="1.0" encoding="UTF-8"?>
<svg width="365px" height="83px" viewBox="0 0 365 83" version="1.1" xmlns="http://www.w3.org/2000/svg" xmlns:xlink="http://www.w3.org/1999/xlink">
    <!-- Generator: Sketch 56 (81588) - https://sketch.com -->
    <title>logo</title>
    <desc>Created with Sketch.</desc>
    <defs>
        <polygon id="path-1" points="0 81.6229508 364.046361 81.6229508 364.046361 0.19252459 0 0.19252459"></polygon>
    </defs>
    <g id="Page-1" stroke="none" stroke-width="1" fill="none" fill-rule="evenodd">
        <g id="home" transform="translate(-538.000000, -65.000000)">
            <g id="logo" transform="translate(538.040984, 65.500000)">
                <polygon id="Fill-1" fill="#8E8E8E" points="309.844328 49.5035541 320.72577 49.5035541 320.72577 31.5550951 309.844328 31.5550951"></polygon>
                <polygon id="Fill-2" fill="#AC2525" points="35.5778557 0.376636066 19.6935934 9.54778361 35.5778557 18.7175541 51.462118 9.54778361"></polygon>
                <polygon id="Fill-3" fill="#AC2525" points="1.26908852 20.1850754 17.1533508 29.3548459 33.0389902 20.1850754 17.1533508 11.0139279"></polygon>
                <polygon id="Fill-4" fill="#AC2525" points="0 40.7259672 15.8842623 49.8957377 15.8842623 31.5548197 0 22.3836721"></polygon>
                <polygon id="Fill-5" fill="#AC2525" points="55.2715869 31.5548197 55.2715869 49.8957377 71.1558492 40.7259672 71.1558492 22.3836721"></polygon>
                <polygon id="Fill-6" fill="#AC2525" points="69.886623 20.1846623 54.0023607 11.0135148 38.1180984 20.1846623 54.0023607 29.3558098"></polygon>
                <g id="Group-43" transform="translate(0.000000, 0.184800)">
                    <path d="M108.739928,39.5072787 L108.739928,34.2896393 C107.000715,32.0147541 104.592256,31.2119344 102.183797,31.2119344 C98.215141,31.2119344 96.0297639,33.3973115 96.0297639,36.8757377 C96.0297639,40.3982295 98.215141,42.5836066 102.183797,42.5836066 C104.592256,42.5836066 107.000715,41.7807869 108.739928,39.5072787 M108.78537,27.7775738 L108.78537,18.0996721 L119.264715,18.0996721 L119.264715,49.3187541 L108.78537,49.3187541 L108.78537,46.0193443 C106.46642,48.8285246 103.12019,50.2097049 99.1060918,50.2097049 C91.3464197,50.2097049 86.0847148,45.2165246 86.0847148,36.8757377 C86.0847148,28.5803934 91.3464197,23.5858361 99.1060918,23.5858361 C103.12019,23.5858361 106.46642,24.9243279 108.78537,27.7775738" id="Fill-7" fill="#202020"></path>
                    <mask id="mask-2" fill="white">
                        <use xlink:href="#path-1"></use>
                    </mask>
                    <g id="Clip-10"></g>
                    <polygon id="Fill-9" fill="#AC2525" mask="url(#mask-2)" points="309.844328 28.9824918 320.72577 28.9824918 320.72577 18.0996721 309.844328 18.0996721"></polygon>
                    <path d="M215.485338,36.8761508 L210.98101,27.2423148 L206.476682,36.8761508 L215.485338,36.8761508 Z M218.784748,43.9225115 L203.175895,43.9225115 L200.633862,49.3191672 L189.306256,49.3191672 L205.13819,18.1000852 L216.956026,18.1000852 L232.787961,49.3191672 L221.32678,49.3191672 L218.784748,43.9225115 Z" id="Fill-11" fill="#8E8E8E" mask="url(#mask-2)"></path>
                    <polygon id="Fill-12" fill="#202020" mask="url(#mask-2)" points="0 43.4730426 0 61.8153377 15.8842623 70.9851082 15.8842623 52.6441902"></polygon>
                    <polygon id="Fill-13" fill="#202020" mask="url(#mask-2)" points="18.4240918 54.1101967 18.4240918 72.4511148 34.3083541 81.6222623 34.3083541 63.2813443"></polygon>
                    <polygon id="Fill-14" fill="#202020" mask="url(#mask-2)" points="55.2715869 52.6443279 55.2715869 70.9852459 71.1558492 61.8154754 71.1558492 43.4731803"></polygon>
                    <polygon id="Fill-15" fill="#202020" mask="url(#mask-2)" points="36.8481836 63.281482 36.8481836 81.6224 52.7324459 72.4512525 52.7324459 54.1103344"></polygon>
                    <path d="M35.5781311,53.0074557 C42.040623,53.0074557 47.3119672,47.7374885 47.3119672,41.2736197 C47.3119672,34.8125049 42.040623,29.5411607 35.5781311,29.5411607 C29.1156393,29.5411607 23.8442951,34.8125049 23.8442951,41.2736197 C23.8442951,47.7374885 29.1156393,53.0074557 35.5781311,53.0074557" id="Fill-16" fill="#202020" mask="url(#mask-2)"></path>
                    <polygon id="Fill-17" fill="#202020" mask="url(#mask-2)" points="186.590164 18.0998098 186.590164 49.3188918 175.842295 49.3188918 175.842295 30.9889902 164.514689 44.9481377 163.979016 44.9481377 152.695475 30.9889902 152.695475 49.3188918 142.214754 49.3188918 142.214754 18.0998098 154.078033 18.0998098 164.514689 31.7023016 175.039475 18.0998098"></polygon>
                    <polygon id="Fill-18" fill="#202020" mask="url(#mask-2)" points="263.78162 26.3506754 251.428111 26.3506754 251.428111 49.3184787 240.546669 49.3184787 240.546669 26.3506754 228.237226 26.3506754 228.237226 18.0993967 263.78162 18.0993967"></polygon>
                    <path d="M288.887292,32.8620525 C291.696472,32.8620525 293.70421,32.0592328 293.70421,29.3836262 C293.70421,26.7080197 291.696472,25.9052 288.887292,25.9052 L278.40657,25.9052 L278.40657,32.8620525 L288.887292,32.8620525 Z M293.302111,49.3191672 L285.720079,40.1314951 L278.40657,40.1314951 L278.40657,49.3191672 L267.614636,49.3191672 L267.614636,18.1000852 L289.778243,18.1000852 C298.11903,18.1000852 304.719226,21.6680197 304.719226,29.1164787 C304.719226,34.2446098 301.597456,37.5453967 296.915489,39.1055934 L305.701062,49.3191672 L293.302111,49.3191672 Z" id="Fill-19" fill="#202020" mask="url(#mask-2)"></path>
                    <polygon id="Fill-20" fill="#202020" mask="url(#mask-2)" points="349.758511 33.2634623 363.761725 49.3184787 350.873921 49.3184787 343.246446 40.3993311 335.620348 49.3184787 323.445856 49.3184787 337.403626 33.4424787 323.801134 18.0993967 336.735757 18.0993967 343.959757 26.5296918 351.185134 18.0993967 363.405069 18.0993967"></polygon>
                    <polygon id="Fill-21" fill="#202020" mask="url(#mask-2)" points="87.862623 72.5688525 90.2049836 72.5688525 90.2049836 58.9030164 87.862623 58.9030164"></polygon>
                    <path d="M95.0844197,72.568577 L95.0844197,61.870282 L97.3689443,61.870282 L97.3689443,63.9386098 C98.3053377,62.4169705 100.062452,61.4792 102.249207,61.4792 C105.508682,61.4792 107.129469,63.5681836 107.129469,66.4586098 L107.129469,72.568577 L104.8656,72.568577 L104.8656,66.6142164 C104.8656,64.5059541 103.791502,63.3726426 101.662584,63.3726426 C99.8283541,63.3726426 98.286059,64.2319213 97.3689443,65.9904131 L97.3689443,72.568577 L95.0844197,72.568577 Z" id="Fill-22" fill="#202020" mask="url(#mask-2)"></path>
                    <path d="M119.230426,71.9633639 C118.351869,72.5486098 117.160721,72.9589705 115.931016,72.9589705 C113.842033,72.9589705 112.182689,71.8463148 112.182689,69.6210033 L112.182689,63.6859213 L110.112984,63.6859213 L110.112984,61.8709705 L112.182689,61.8709705 L112.182689,59.3909049 L114.467213,59.3909049 L114.467213,61.8709705 L119.132656,61.8709705 L119.132656,63.6859213 L114.467213,63.6859213 L114.467213,69.2492 C114.467213,70.4403475 115.384328,71.0255934 116.496984,71.0255934 C117.297049,71.0255934 117.980066,70.732282 118.624525,70.3825115 L119.230426,71.9633639 Z" id="Fill-23" fill="#202020" mask="url(#mask-2)"></path>
                    <path d="M123.894079,66.1069115 L132.269292,66.0862557 C131.780439,64.134977 130.2588,63.2564197 128.149161,63.2564197 C125.90457,63.2564197 124.323718,64.2134689 123.894079,66.1069115 M128.403915,71.1827148 C130.375849,71.1827148 131.605554,70.6745836 132.776046,69.6390426 L134.103521,71.0656656 C132.639718,72.3738623 130.784833,72.9783869 128.285489,72.9783869 C124.011128,72.9783869 121.550341,70.7530754 121.550341,67.2388459 C121.550341,63.686059 124.011128,61.4607475 128.129882,61.4607475 C131.97598,61.4607475 134.475325,63.4712393 134.475325,67.2195672 C134.475325,67.4729443 134.454669,67.6106492 134.416111,67.7276984 L123.796308,67.7276984 C124.011128,70.0494033 125.70903,71.1827148 128.403915,71.1827148" id="Fill-24" fill="#202020" mask="url(#mask-2)"></path>
                    <polygon id="Fill-25" fill="#202020" mask="url(#mask-2)" points="138.258492 72.5688525 140.523738 72.5688525 140.523738 58.1222295 138.258492 58.1222295"></polygon>
                    <polygon id="Fill-26" fill="#202020" mask="url(#mask-2)" points="145.226361 72.5688525 147.491607 72.5688525 147.491607 58.1222295 145.226361 58.1222295"></polygon>
                    <path d="M152.195607,72.5688525 L154.459475,72.5688525 L154.459475,61.8705574 L152.195607,61.8705574 L152.195607,72.5688525 Z M151.843082,59.1371148 C151.843082,58.3962623 152.468262,57.8688525 153.306885,57.8688525 C154.146885,57.8688525 154.75141,58.3962623 154.75141,59.1371148 C154.75141,59.8407869 154.146885,60.4067541 153.306885,60.4067541 C152.468262,60.4067541 151.843082,59.8407869 151.843082,59.1371148 L151.843082,59.1371148 Z" id="Fill-27" fill="#202020" mask="url(#mask-2)"></path>
                    <path d="M169.020118,68.6444 L169.020118,65.6575803 C167.966675,63.9982361 166.483593,63.353777 164.686544,63.353777 C162.031593,63.353777 160.548511,64.7404656 160.548511,67.161318 C160.548511,69.5615148 162.031593,70.9482033 164.686544,70.9482033 C166.483593,70.9482033 167.966675,70.3037443 169.020118,68.6444 L169.020118,68.6444 Z M171.304643,71.1823016 C171.304643,75.281777 168.141561,76.8640066 164.765036,76.8640066 C162.852315,76.8640066 160.606348,76.315941 159.395921,75.4965967 L160.216643,73.797318 C161.231528,74.4624328 162.71461,74.9691869 164.530938,74.9691869 C167.439266,74.9691869 169.020118,73.8372525 169.020118,71.5141705 L169.020118,70.5185639 C168.024511,71.9438098 166.11179,72.8030885 164.08202,72.8030885 C160.548511,72.8030885 158.302544,70.5970557 158.302544,67.161318 C158.302544,63.7049246 160.548511,61.4796131 164.08202,61.4796131 C166.267397,61.4796131 168.024511,62.3388918 169.020118,63.7834164 L169.020118,61.8706951 L171.304643,61.8706951 L171.304643,71.1823016 Z" id="Fill-28" fill="#202020" mask="url(#mask-2)"></path>
                    <path d="M177.469967,66.1069115 L185.84518,66.0862557 C185.357705,64.134977 183.834689,63.2564197 181.726426,63.2564197 C179.480459,63.2564197 177.899607,64.2134689 177.469967,66.1069115 M181.979803,71.1827148 C183.951738,71.1827148 185.181443,70.6745836 186.353311,69.6390426 L187.67941,71.0656656 C186.216984,72.3738623 184.362098,72.9783869 181.862754,72.9783869 C177.587016,72.9783869 175.127607,70.7530754 175.127607,67.2388459 C175.127607,63.686059 177.587016,61.4607475 181.707148,61.4607475 C185.553246,61.4607475 188.05259,63.4712393 188.05259,67.2195672 C188.05259,67.4729443 188.031934,67.6106492 187.993377,67.7276984 L177.373574,67.7276984 C177.587016,70.0494033 179.286295,71.1827148 181.979803,71.1827148" id="Fill-29" fill="#202020" mask="url(#mask-2)"></path>
                    <path d="M191.776957,72.568577 L191.776957,61.870282 L194.061482,61.870282 L194.061482,63.9386098 C194.997875,62.4169705 196.75499,61.4792 198.940367,61.4792 C202.20122,61.4792 203.822007,63.5681836 203.822007,66.4586098 L203.822007,72.568577 L201.558138,72.568577 L201.558138,66.6142164 C201.558138,64.5059541 200.482662,63.3726426 198.355121,63.3726426 C196.520892,63.3726426 194.978597,64.2319213 194.061482,65.9904131 L194.061482,72.568577 L191.776957,72.568577 Z" id="Fill-30" fill="#202020" mask="url(#mask-2)"></path>
                    <path d="M214.18499,72.9786623 C210.066236,72.9786623 207.566892,70.7326951 207.566892,67.2391213 C207.566892,63.7056131 210.066236,61.461023 214.18499,61.461023 C217.17181,61.461023 219.007416,62.6714492 219.945187,64.2137443 L217.79699,65.130859 C217.093318,63.841941 215.668072,63.3544656 214.205646,63.3544656 C211.667744,63.3544656 209.811482,64.6420066 209.811482,67.2391213 C209.811482,69.7963016 211.667744,71.0838426 214.205646,71.0838426 C215.668072,71.0838426 217.152531,70.5770885 217.854826,69.2496131 L220.003023,70.1474492 C219.065252,71.7682361 217.231023,72.9786623 214.18499,72.9786623" id="Fill-31" fill="#202020" mask="url(#mask-2)"></path>
                    <path d="M224.939193,66.1069115 L233.314407,66.0862557 C232.826931,64.134977 231.302538,63.2564197 229.195652,63.2564197 C226.949685,63.2564197 225.368833,64.2134689 224.939193,66.1069115 M229.447652,71.1827148 C231.420964,71.1827148 232.650669,70.6745836 233.821161,69.6390426 L235.148636,71.0656656 C233.684833,72.3738623 231.829948,72.9783869 229.330603,72.9783869 C225.056243,72.9783869 222.596833,70.7530754 222.596833,67.2388459 C222.596833,63.686059 225.056243,61.4607475 229.174997,61.4607475 C233.021095,61.4607475 235.520439,63.4712393 235.520439,67.2195672 C235.520439,67.4729443 235.499784,67.6106492 235.461226,67.7276984 L224.841423,67.7276984 C225.056243,70.0494033 226.754144,71.1827148 229.447652,71.1827148" id="Fill-32" fill="#202020" mask="url(#mask-2)"></path>
                    <path d="M259.331823,65.735659 C259.331823,62.572577 256.833856,60.9531672 253.241134,60.9531672 L248.830446,60.9531672 L248.830446,70.5195279 L253.241134,70.5195279 C256.833856,70.5195279 259.331823,68.898741 259.331823,65.735659 M261.733397,65.735659 C261.733397,69.9535607 258.4932,72.568577 253.417397,72.568577 L246.486708,72.568577 L246.486708,58.902741 L253.417397,58.902741 C258.4932,58.902741 261.733397,61.5177574 261.733397,65.735659" id="Fill-33" fill="#202020" mask="url(#mask-2)"></path>
                    <path d="M267.253849,66.1069115 L275.629062,66.0862557 C275.141587,64.134977 273.61857,63.2564197 271.510308,63.2564197 C269.264341,63.2564197 267.683489,64.2134689 267.253849,66.1069115 M271.763685,71.1827148 C273.73562,71.1827148 274.966702,70.6745836 276.135816,69.6390426 L277.464669,71.0656656 C276.000866,72.3738623 274.14598,72.9783869 271.646636,72.9783869 C267.370898,72.9783869 264.911489,70.7530754 264.911489,67.2388459 C264.911489,63.686059 267.370898,61.4607475 271.49103,61.4607475 C275.335751,61.4607475 277.835095,63.4712393 277.835095,67.2195672 C277.835095,67.4729443 277.815816,67.6106492 277.777259,67.7276984 L267.157456,67.7276984 C267.370898,70.0494033 269.0688,71.1827148 271.763685,71.1827148" id="Fill-34" fill="#202020" mask="url(#mask-2)"></path>
                    <polygon id="Fill-35" fill="#202020" mask="url(#mask-2)" points="281.618951 72.5688525 283.884197 72.5688525 283.884197 58.1222295 281.618951 58.1222295"></polygon>
                    <path d="M288.58682,72.5688525 L290.850689,72.5688525 L290.850689,61.8705574 L288.58682,61.8705574 L288.58682,72.5688525 Z M288.235672,59.1371148 C288.235672,58.3962623 288.860852,57.8688525 289.699475,57.8688525 C290.539475,57.8688525 291.144,58.3962623 291.144,59.1371148 C291.144,59.8407869 290.539475,60.4067541 289.699475,60.4067541 C288.860852,60.4067541 288.235672,59.8407869 288.235672,59.1371148 L288.235672,59.1371148 Z" id="Fill-36" fill="#202020" mask="url(#mask-2)"></path>
                    <polygon id="Fill-37" fill="#202020" mask="url(#mask-2)" points="301.91941 72.568577 299.498557 72.568577 293.993115 61.870282 296.492459 61.870282 300.728262 70.3611672 304.964066 61.870282 307.404197 61.870282"></polygon>
                    <path d="M311.638072,66.1069115 L320.013285,66.0862557 C319.52581,64.134977 318.001416,63.2564197 315.894531,63.2564197 C313.648564,63.2564197 312.067711,64.2134689 311.638072,66.1069115 M316.146531,71.1827148 C318.119843,71.1827148 319.349548,70.6745836 320.520039,69.6390426 L321.847515,71.0656656 C320.385089,72.3738623 318.530203,72.9783869 316.029482,72.9783869 C311.755121,72.9783869 309.295711,70.7530754 309.295711,67.2388459 C309.295711,63.686059 311.755121,61.4607475 315.873875,61.4607475 C319.719974,61.4607475 322.219318,63.4712393 322.219318,67.2195672 C322.219318,67.4729443 322.200039,67.6106492 322.160105,67.7276984 L311.540302,67.7276984 C311.755121,70.0494033 313.453023,71.1827148 316.146531,71.1827148" id="Fill-38" fill="#202020" mask="url(#mask-2)"></path>
                    <path d="M325.9452,72.568577 L325.9452,61.870282 L328.229725,61.870282 L328.229725,64.3104131 C329.087626,62.5932328 331.080216,61.6554623 333.284872,61.6554623 L333.284872,63.6466754 C330.903954,63.6466754 328.951298,64.642282 328.229725,66.6527738 L328.229725,72.568577 L325.9452,72.568577 Z" id="Fill-39" fill="#202020" mask="url(#mask-2)"></path>
                    <path d="M337.499469,66.1069115 L345.874682,66.0862557 C345.387207,64.134977 343.862813,63.2564197 341.755928,63.2564197 C339.509961,63.2564197 337.929108,64.2134689 337.499469,66.1069115 M342.007928,71.1827148 C343.981239,71.1827148 345.210944,70.6745836 346.381436,69.6390426 L347.708911,71.0656656 C346.246485,72.3738623 344.3916,72.9783869 341.890879,72.9783869 C337.616518,72.9783869 335.157108,70.7530754 335.157108,67.2388459 C335.157108,63.686059 337.616518,61.4607475 341.735272,61.4607475 C345.58137,61.4607475 348.080715,63.4712393 348.080715,67.2195672 C348.080715,67.4729443 348.060059,67.6106492 348.021502,67.7276984 L337.401698,67.7276984 C337.616518,70.0494033 339.31442,71.1827148 342.007928,71.1827148" id="Fill-40" fill="#202020" mask="url(#mask-2)"></path>
                    <path d="M361.763213,68.8206623 L361.763213,65.619023 C360.748328,64.0367934 359.206033,63.4322689 357.429639,63.4322689 C354.773311,63.4322689 353.29023,64.779023 353.29023,67.2398098 C353.29023,69.6592852 354.773311,71.0266951 357.429639,71.0266951 C359.206033,71.0266951 360.748328,70.4015148 361.763213,68.8206623 M361.763213,63.7834164 L361.763213,58.1209902 L364.046361,58.1209902 L364.046361,72.5689902 L361.763213,72.5689902 L361.763213,70.6755475 C360.844721,72.003023 359.126164,72.9586951 356.843016,72.9586951 C353.367344,72.9586951 351.063541,70.6934492 351.063541,67.2398098 C351.063541,63.7641377 353.367344,61.4796131 356.843016,61.4796131 C359.126164,61.4796131 360.844721,62.4366623 361.763213,63.7834164" id="Fill-41" fill="#202020" mask="url(#mask-2)"></path>
                    <polygon id="Fill-42" fill="#AC2525" mask="url(#mask-2)" points="124.906623 39.150623 135.788066 39.150623 135.788066 28.2678033 124.906623 28.2678033"></polygon>
                </g>
            </g>
        </g>
    </g>
</svg>